# xmcd
#
# Track frame offsets: 
#        150
#        36758
#        67896
#        99646
#        130896
#        164416
#        202359
#        238449
#        264084
#        286754
#
# Disc length: 4386 seconds
#
# Revision: 2
# Processed by: cddbd v1.5.2PL0 Copyright (c) Steve Scherf et al.
# Submitted via: ExactAudioCopy v0.99pb5
#
DISCID=9211200a
DTITLE=Alphonse Mouzon - Live In Hollywood
DYEAR=1999
DGENRE=Tenaciuos Records
TTITLE0=The Baker's Daughter
TTITLE1=As You Wish
TTITLE2=Poobli
TTITLE3=A Waltz For Emma
TTITLE4=All That Jazz
TTITLE5=Anticipation
TTITLE6=The Funky Waltz
TTITLE7=If Tomorrow Comes
TTITLE8=Allison
TTITLE9=One More Time
EXTD=YEAR: 2001
EXTT0=
EXTT1=
EXTT2=
EXTT3=
EXTT4=
EXTT5=
EXTT6=
EXTT7=
EXTT8=
EXTT9=
PLAYORDER=
